HIERARCHY
ROOT Hips
{
	OFFSET 0.00000 0.00000 0.00000
	CHANNELS 6 Xposition Yposition Zposition Zrotation Yrotation Xrotation 
	JOINT LHipJoint
	{
		OFFSET 0 0 0
		CHANNELS 3 Zrotation Yrotation Xrotation
		JOINT LeftUpLeg
		{
			OFFSET 1.86795 -1.59681 0.65681
			CHANNELS 3 Zrotation Yrotation Xrotation
			JOINT LeftLeg
			{
				OFFSET 2.30491 -6.33268 0.00000
				CHANNELS 3 Zrotation Yrotation Xrotation
				JOINT LeftFoot
				{
					OFFSET 2.46780 -6.78022 0.00000
					CHANNELS 3 Zrotation Yrotation Xrotation
					JOINT LeftToeBase
					{
						OFFSET 0.07897 -0.21698 1.59652
						CHANNELS 3 Zrotation Yrotation Xrotation
						End Site
						{
							OFFSET 0.00000 -0.00000 0.82310
						}
					}
				}
			}
		}
	}
	JOINT RHipJoint
	{
		OFFSET 0 0 0
		CHANNELS 3 Zrotation Yrotation Xrotation
		JOINT RightUpLeg
		{
			OFFSET -1.93650 -1.59681 0.65681
			CHANNELS 3 Zrotation Yrotation Xrotation
			JOINT RightLeg
			{
				OFFSET -2.29410 -6.30299 0.00000
				CHANNELS 3 Zrotation Yrotation Xrotation
				JOINT RightFoot
				{
					OFFSET -2.48738 -6.83403 0.00000
					CHANNELS 3 Zrotation Yrotation Xrotation
					JOINT RightToeBase
					{
						OFFSET -0.08699 -0.23899 1.89395
						CHANNELS 3 Zrotation Yrotation Xrotation
						End Site
						{
							OFFSET -0.00000 -0.00000 0.96904
						}
					}
				}
			}
		}
	}
	JOINT LowerBack
	{
		OFFSET 0 0 0
		CHANNELS 3 Zrotation Yrotation Xrotation
		JOINT Spine
		{
			OFFSET 0.03629 1.99740 -0.07548
			CHANNELS 3 Zrotation Yrotation Xrotation
			JOINT Spine1
			{
				OFFSET 0.03970 1.94298 0.17218
				CHANNELS 3 Zrotation Yrotation Xrotation
				JOINT Neck
				{
					OFFSET 0 0 0
					CHANNELS 3 Zrotation Yrotation Xrotation
					JOINT Neck1
					{
						OFFSET -0.05054 1.79469 0.04241
						CHANNELS 3 Zrotation Yrotation Xrotation
						JOINT Head
						{
							OFFSET 0.05195 1.78475 -0.22133
							CHANNELS 3 Zrotation Yrotation Xrotation
							End Site
							{
								OFFSET 0.02420 1.80711 -0.07950
							}
						}
					}
				}
				JOINT LeftShoulder
				{
					OFFSET 0 0 0
					CHANNELS 3 Zrotation Yrotation Xrotation
					JOINT LeftArm
					{
						OFFSET 2.92134 1.19850 0.36056
						CHANNELS 3 Zrotation Yrotation Xrotation
						JOINT LeftForeArm
						{
							OFFSET 4.84137 -0.00000 0.00000
							CHANNELS 3 Zrotation Yrotation Xrotation
							JOINT LeftHand
							{
								OFFSET 3.24520 -0.00000 -0.00000
								CHANNELS 3 Zrotation Yrotation Xrotation
								JOINT LeftFingerBase
								{
									OFFSET 0 0 0
									CHANNELS 3 Zrotation Yrotation Xrotation
									JOINT LeftHandIndex1
									{
										OFFSET 0.52122 -0.00000 0.00000
										CHANNELS 3 Zrotation Yrotation Xrotation
										End Site
										{
											OFFSET 0.42022 -0.00000 0.00000
										}
									}
								}
								JOINT LThumb
								{
									OFFSET 0 0 0
									CHANNELS 3 Zrotation Yrotation Xrotation
									End Site
									{
										OFFSET 0.42664 -0.00000 0.42664
									}
								}
							}
						}
					}
				}
				JOINT RightShoulder
				{
					OFFSET 0 0 0
					CHANNELS 3 Zrotation Yrotation Xrotation
					JOINT RightArm
					{
						OFFSET -2.84327 1.20795 0.50191
						CHANNELS 3 Zrotation Yrotation Xrotation
						JOINT RightForeArm
						{
							OFFSET -4.72284 -0.00000 0.00000
							CHANNELS 3 Zrotation Yrotation Xrotation
							JOINT RightHand
							{
								OFFSET -3.23459 -0.00000 0.00000
								CHANNELS 3 Zrotation Yrotation Xrotation
								JOINT RightFingerBase
								{
									OFFSET 0 0 0
									CHANNELS 3 Zrotation Yrotation Xrotation
									JOINT RightHandIndex1
									{
										OFFSET -0.30742 -0.00000 0.00000
										CHANNELS 3 Zrotation Yrotation Xrotation
										End Site
										{
											OFFSET -0.24785 -0.00000 0.00000
										}
									}
								}
								JOINT RThumb
								{
									OFFSET 0 0 0
									CHANNELS 3 Zrotation Yrotation Xrotation
									End Site
									{
										OFFSET -0.25163 -0.00000 0.25163
									}
								}
							}
						}
					}
				}
			}
		}
	}
}
MOTION
Frames: 6
Frame Time: 0.0240964
0.00 0.00 0.00 174.1570 -54.3507 -163.8890 0.0000 0.0000 0.0000 -19.1920 10.7006 -31.7437 12.3337 18.5282 67.0428 -0.4034 12.1886 -9.7073 2.0737 9.0179 25.8512 0.0000 0.0000 0.0000 17.5839 17.6933 -39.9217 -6.1366 -14.5594 45.5275 1.1302 -20.4885 -17.4112 -1.0023 -6.3707 17.8638 1.8847 -0.9040 8.4341 1.2210 -0.9215 -2.8733 0.3667 -0.5168 -7.7804 -5.3017 -0.6061 -9.2802 8.0349 -0.7253 3.4826 3.6203 -0.1803 2.8819 -0.0000 0.0000 0.0000 -66.3319 41.7789 -19.2829 7.5019 -12.7422 -0.8388 -0.0000 -0.0000 59.3804 -14.8931 49.0182 -11.3524 -7.1250 0.0000 -0.0000 -72.9217 64.9978 -45.0635 -0.0000 0.0000 0.0000 55.2626 -17.2301 -6.2512 -6.8611 11.6903 -0.7032 0.0000 0.0000 9.8112 -26.2971 21.6938 -10.3519 7.1250 -0.0000 -0.0000 1.5496 -6.0581 1.3779
0.00 0.00 0.00 173.9990 -39.1092 -168.9960 0.0000 0.0000 0.0000 -15.6536 2.8440 -37.3168 15.8353 19.5790 77.7405 0.3067 4.2151 -12.8756 2.9891 10.6773 31.1993 0.0000 0.0000 0.0000 19.0780 18.5153 -31.8733 -6.5834 -14.9708 47.2805 -0.2365 -12.5574 -20.5962 -0.7504 -5.5331 15.4355 2.0289 -0.9193 7.8417 3.5158 -1.0170 0.2636 2.6277 -0.5630 -4.0978 -4.9229 0.4938 -7.4862 5.4238 0.8226 3.8178 2.6894 0.5008 2.5167 0.0000 0.0000 0.0000 -10.1220 25.0669 17.6462 10.5774 -17.6377 -1.6456 -0.0000 -0.0000 38.0867 -22.4175 60.8503 -19.8131 -7.1250 0.0000 -0.0000 -100.9584 65.0860 -75.0351 0.0000 0.0000 0.0000 -3.3368 -10.3071 20.8488 -11.1296 18.4867 -1.8168 0.0000 -0.0000 -11.7318 -22.5590 14.0280 -5.7501 7.1250 -0.0000 -0.0000 3.3289 -14.8587 2.3680
0.00 0.00 0.00 173.7990 -21.8700 -169.3290 0.0000 0.0000 0.0000 -11.2182 -5.5808 -44.6166 10.3113 17.5812 60.5239 0.0638 8.4676 -13.2319 0.6375 5.1082 14.2174 0.0000 0.0000 0.0000 16.5282 18.6487 -27.3394 -6.1772 -14.5979 45.6889 -1.2057 -0.1688 -20.8277 -0.3934 -4.0273 11.1535 2.5517 -2.4948 9.4611 4.6864 -3.4429 3.3976 3.8012 -1.9228 -1.6136 -2.5092 4.8255 -7.0918 0.3643 6.3801 -3.3169 0.6470 3.1164 0.0491 0.0000 -0.0000 0.0000 17.2834 22.4555 -1.6393 11.7577 -19.4402 -2.0209 -0.0000 -0.0000 37.4677 -8.6757 73.8351 -8.3376 -7.1250 0.0000 -0.0000 -112.6948 -68.9876 134.6526 0.0000 -0.0000 0.0000 -42.8876 -19.9173 18.2317 -12.1985 20.1016 -2.1700 0.0000 -0.0000 -30.1054 -35.8682 4.3722 -3.1550 7.1250 -0.0000 -0.0000 -6.8838 -24.5909 -3.4184
0.00 0.00 0.00 183.1110 -14.9095 -166.2270 0.0000 0.0000 0.0000 -3.9843 -9.0036 -47.4956 2.4874 9.8149 28.3793 1.5128 17.2110 -34.8159 3.1904 10.9971 32.2702 0.0000 0.0000 0.0000 23.1078 24.4720 -16.2616 -3.0178 -10.7238 31.3539 -0.9871 -3.5478 -20.3659 -0.0005 -0.1401 0.3849 7.4195 -2.3516 8.9312 6.4289 -3.0076 2.5952 2.8791 -1.8123 -2.2888 0.5365 8.2149 -7.3395 -5.5270 9.9342 -9.3852 -1.6896 4.6561 -1.3967 -0.0000 0.0000 0.0000 -66.8338 22.0879 12.5235 10.8758 -18.0977 -1.7372 -0.0000 -0.0000 33.3367 0.0653 61.5146 0.0574 -7.1250 0.0000 -0.0000 -98.5644 72.0292 -80.3117 -0.0000 0.0000 0.0000 53.6391 -7.8174 -1.3704 -8.3382 14.0995 -1.0329 0.0000 -0.0000 -8.7644 -27.7040 18.3345 -9.3793 7.1250 -0.0000 -0.0000 0.2617 -9.4593 0.2151
0.00 0.00 0.00 190.8870 -26.3220 -168.2140 0.0000 0.0000 0.0000 -5.9558 -9.3022 -50.5197 3.1626 10.9538 32.1241 4.7959 19.1783 -50.4778 8.3669 16.3826 53.8738 0.0000 0.0000 0.0000 32.8236 19.2681 -5.4672 -1.8125 -8.4641 24.1329 -0.0955 -13.3056 -20.0171 -0.3194 3.6326 -10.0453 8.1306 -0.1815 3.4242 6.1169 -0.3148 0.4572 1.7972 -0.3874 -1.4347 -1.9181 5.1819 -8.6238 1.7721 6.5333 -8.4152 0.9537 3.0373 -1.3224 -0.0000 -0.0000 0.0000 -66.5982 22.7170 -5.1179 8.7881 -14.8221 -1.1453 -0.0000 -0.0000 47.6413 -30.7071 42.5052 -21.8651 -7.1250 0.0000 -0.0000 -74.0535 57.7618 -34.6437 -0.0000 -0.0000 0.0000 66.9705 -12.8188 -8.7376 -5.1445 8.8280 -0.3974 0.0000 0.0000 17.1905 1.1584 9.9077 0.1993 7.1250 -0.0000 -0.0000 19.7873 -20.2881 12.4531
0.00 0.00 0.00 191.7760 -32.6696 -171.3480 0.0000 0.0000 0.0000 -10.8389 -6.1392 -47.9405 3.8224 11.9202 35.4503 1.6956 19.3225 -37.7523 7.8922 16.0394 52.1734 0.0000 0.0000 0.0000 30.2052 1.7397 -15.4718 -5.0521 -13.4422 41.0472 -0.1223 2.3363 -6.2087 -1.8611 8.5706 -24.4610 3.9315 -0.2692 1.5762 4.2889 -0.3872 -0.7021 2.2199 -0.2889 -1.5988 -3.4758 3.1614 -6.3127 6.4437 4.2631 -6.8799 2.6930 1.9887 -1.3299 -0.0000 -0.0000 0.0000 -32.9532 18.6137 0.3182 10.0194 -16.7699 -1.4805 -0.0000 -0.0000 39.8206 -49.8068 40.6814 -37.6520 -7.1250 0.0000 -0.0000 -84.4395 52.7236 -33.9546 -0.0000 -0.0000 0.0000 32.7078 -17.7692 14.5520 -7.9853 13.5291 -0.9487 0.0000 -0.0000 -2.3588 19.7369 1.9400 0.6959 7.1250 -0.0000 -0.0000 33.5469 -26.7062 17.9938
